<svg id="visual" viewBox="0 0 900 600" width="900" height="600" xmlns="http://www.w3.org/2000/svg" xmlns:xlink="http://www.w3.org/1999/xlink" version="1.1"><path d="M0 389L30 395.7C60 402.3 120 415.7 180 419.2C240 422.7 300 416.3 360 422.8C420 429.3 480 448.7 540 452.3C600 456 660 444 720 452.7C780 461.3 840 490.7 870 505.3L900 520L900 601L870 601C840 601 780 601 720 601C660 601 600 601 540 601C480 601 420 601 360 601C300 601 240 601 180 601C120 601 60 601 30 601L0 601Z" fill="#0072b1" stroke-linecap="round" stroke-linejoin="miter"></path></svg>