<svg id="Layer_1" data-name="Layer 1" xmlns="http://www.w3.org/2000/svg" viewBox="0 0 700 243"><defs><style>.cls-1{fill:#e6e6e6;}</style></defs><path class="cls-1" d="M699,211.75a58.75,58.75,0,0,1,0-117.5c.34,0,.67,0,1,0V1.08c-22.7,30.63-46.27,47-74.16,51.6-25.18,4.13-51.64-1.8-79.67-8.07-41.4-9.27-88.32-19.78-144.94-1.89-78,24.63-123.71,30.66-154,30.66a236.94,236.94,0,0,1-39-3.41c-2.9-.45-5.64-.87-8.33-1.23C140.44,60.82,38.15,1.74,37.12,1.15L37.79,0H0S113,74,168,87c64.2,15.17,89,25,228-23,98.25-33.93,145,42.9,171,76,29,37,82.22,96.81,133,103V211.72C699.67,211.73,699.34,211.75,699,211.75Z"/><path class="cls-1" d="M607.5,25.75A55.24,55.24,0,0,1,560.82,0h-246A88.13,88.13,0,0,1,245.5,33.75,88.13,88.13,0,0,1,176.14,0h-138c5.58,3.21,104.2,59.55,162,67.26,2.7.36,5.45.78,8.36,1.23,28.44,4.37,71.43,11,192.31-27.21,57-18,104.15-7.45,145.73,1.86C604.25,56.07,649.87,66.29,698.9.05l1.1.82V0H654.18A55.24,55.24,0,0,1,607.5,25.75Z"/><path class="cls-1" d="M641.75,153A57.31,57.31,0,0,0,699,210.25c.34,0,.67,0,1,0V95.78c-.33,0-.66,0-1,0A57.31,57.31,0,0,0,641.75,153Z"/><path class="cls-1" d="M607.5,24.25A53.75,53.75,0,0,0,652.4,0H562.6A53.75,53.75,0,0,0,607.5,24.25Z"/><path class="cls-1" d="M245.5,32.25A86.61,86.61,0,0,0,312.94,0H178.06A86.61,86.61,0,0,0,245.5,32.25Z"/></svg>